<svg width="103" height="110" viewBox="0 0 103 110" fill="none" xmlns="http://www.w3.org/2000/svg">
<path d="M58.4439 48.9797C61.8956 50.9214 61.8272 55.9143 58.3237 57.7608L8.2421 84.1558C4.88578 85.9247 0.859427 83.4577 0.911341 79.6641L1.65238 25.5136C1.70429 21.72 5.79666 19.3641 9.10331 21.2242L58.4439 48.9797Z" fill="#FB6054" fill-opacity="0.8"/>
<path d="M94.1568 69.2265C97.6085 71.1682 97.5401 76.1611 94.0366 78.0076L43.955 104.403C40.5987 106.171 36.5723 103.704 36.6242 99.9109L37.3653 45.7603C37.4172 41.9668 41.5095 39.6108 44.8162 41.4709L94.1568 69.2265Z" fill="#5ABDAC" fill-opacity="0.8"/>
<path d="M94.438 32.6698C97.8897 34.6115 97.8214 39.6044 94.3178 41.4509L44.2362 67.8459C40.8799 69.6148 36.8536 67.1478 36.9055 63.3542L37.6465 9.20369C37.6984 5.41011 41.7908 3.0542 45.0975 4.91429L94.438 32.6698Z" fill="#8C53FF" fill-opacity="0.9"/>
</svg>
